<svg width="32" height="31" viewBox="0 0 32 31" fill="none" xmlns="http://www.w3.org/2000/svg">
<path d="M10.9999 23.25H20.9999V25.1875H10.9999V23.25ZM12.9999 27.125H18.9999V29.0625H12.9999V27.125ZM15.9999 1.9375C13.3478 1.9375 10.8042 2.95814 8.92886 4.7749C7.05349 6.59166 5.99992 9.05571 5.99992 11.625C5.9323 13.0329 6.2107 14.4363 6.81222 15.7196C7.41374 17.003 8.32119 18.1296 9.45992 19.0069C10.4599 19.9078 10.9999 20.4212 10.9999 21.3125H12.9999C12.9999 19.53 11.8899 18.5322 10.8099 17.5731C9.87528 16.8798 9.13039 15.975 8.6405 14.938C8.15061 13.901 7.93067 12.7634 7.99992 11.625C7.99992 9.56957 8.84278 7.59833 10.3431 6.14492C11.8434 4.69152 13.8782 3.875 15.9999 3.875C18.1217 3.875 20.1565 4.69152 21.6568 6.14492C23.1571 7.59833 23.9999 9.56957 23.9999 11.625C24.068 12.7643 23.8465 13.9024 23.3549 14.9394C22.8632 15.9765 22.1164 16.8808 21.1799 17.5731C20.1099 18.5419 18.9999 19.5106 18.9999 21.3125H20.9999C20.9999 20.4212 21.5299 19.9078 22.5399 18.9972C23.6779 18.1214 24.5849 16.9964 25.1864 15.7148C25.7879 14.4331 26.0668 13.0314 25.9999 11.625C25.9999 10.3528 25.7413 9.0931 25.2387 7.91775C24.7362 6.74241 23.9996 5.67447 23.071 4.7749C22.1424 3.87534 21.04 3.16176 19.8268 2.67492C18.6135 2.18807 17.3131 1.9375 15.9999 1.9375Z" fill="white"/>
</svg>
