<svg width="58" height="58" viewBox="0 0 58 58" fill="none" xmlns="http://www.w3.org/2000/svg">
<path d="M7.24996 29C4.59163 29 2.41663 26.825 2.41663 24.1667V12.0833C2.41663 9.425 4.59163 7.25 7.24996 7.25H26.5833C29.2416 7.25 31.4166 9.425 31.4166 12.0833V24.1667C31.4166 26.825 29.2416 29 26.5833 29H21.75V36.25L14.5 29H7.24996ZM50.75 43.5C53.4083 43.5 55.5833 41.325 55.5833 38.6667V26.5833C55.5833 23.925 53.4083 21.75 50.75 21.75H36.25V24.1667C36.25 29.4833 31.9 33.8333 26.5833 33.8333V38.6667C26.5833 41.325 28.7583 43.5 31.4166 43.5H36.25V50.75L43.5 43.5H50.75Z" fill="white"/>
</svg>
