<svg width="32" height="32" viewBox="0 0 32 32" fill="none" xmlns="http://www.w3.org/2000/svg">
<path d="M25.3333 28C24.4666 28 23.6888 27.7498 23 27.2493C22.3111 26.7489 21.8333 26.1102 21.5666 25.3333H14.6666C13.2 25.3333 11.9444 24.8111 10.9 23.7667C9.85551 22.7222 9.33329 21.4667 9.33329 20C9.33329 18.5333 9.85551 17.2778 10.9 16.2333C11.9444 15.1889 13.2 14.6667 14.6666 14.6667H17.3333C18.0666 14.6667 18.6946 14.4053 19.2173 13.8827C19.74 13.36 20.0008 12.7324 20 12C20 11.2667 19.7386 10.6387 19.216 10.116C18.6933 9.59333 18.0657 9.33244 17.3333 9.33333H10.4333C10.1444 10.1111 9.66085 10.7502 8.98263 11.2507C8.3044 11.7511 7.5324 12.0009 6.66663 12C5.55551 12 4.61107 11.6111 3.83329 10.8333C3.05551 10.0556 2.66663 9.11111 2.66663 8C2.66663 6.88889 3.05551 5.94444 3.83329 5.16667C4.61107 4.38889 5.55551 4 6.66663 4C7.53329 4 8.30574 4.25022 8.98396 4.75067C9.66218 5.25111 10.1448 5.88978 10.432 6.66667H17.3333C18.8 6.66667 20.0555 7.18889 21.1 8.23333C22.1444 9.27778 22.6666 10.5333 22.6666 12C22.6666 13.4667 22.1444 14.7222 21.1 15.7667C20.0555 16.8111 18.8 17.3333 17.3333 17.3333H14.6666C13.9333 17.3333 13.3053 17.5947 12.7826 18.1173C12.26 18.64 11.9991 19.2676 12 20C12 20.7333 12.2613 21.3613 12.784 21.884C13.3066 22.4067 13.9342 22.6676 14.6666 22.6667H21.5666C21.8555 21.8889 22.3391 21.2498 23.0173 20.7493C23.6955 20.2489 24.4675 19.9991 25.3333 20C26.4444 20 27.3888 20.3889 28.1666 21.1667C28.9444 21.9444 29.3333 22.8889 29.3333 24C29.3333 25.1111 28.9444 26.0556 28.1666 26.8333C27.3888 27.6111 26.4444 28 25.3333 28ZM6.66663 9.33333C7.0444 9.33333 7.36129 9.20533 7.61729 8.94933C7.87329 8.69333 8.00085 8.37689 7.99996 8C7.99996 7.62222 7.87196 7.30533 7.61596 7.04933C7.35996 6.79333 7.04351 6.66578 6.66663 6.66667C6.28885 6.66667 5.97196 6.79467 5.71596 7.05067C5.45996 7.30667 5.3324 7.62311 5.33329 8C5.33329 8.37778 5.46129 8.69467 5.71729 8.95067C5.97329 9.20667 6.28974 9.33422 6.66663 9.33333Z" fill="white"/>
</svg>
