<svg width="63" height="63" viewBox="0 0 63 63" fill="none" xmlns="http://www.w3.org/2000/svg">
<path d="M27.5625 40.6875C27.5625 41.6587 27.3 42.525 26.8275 43.3125C25.935 41.7637 24.255 40.6875 22.3125 40.6875C20.37 40.6875 18.69 41.7637 17.7975 43.3125C17.3513 42.525 17.0625 41.6587 17.0625 40.6875C17.0625 37.8 19.425 35.4375 22.3125 35.4375C25.2 35.4375 27.5625 37.8 27.5625 40.6875ZM60.375 39.375V47.25C60.375 48.6937 59.1937 49.875 57.75 49.875H55.125V52.5C55.125 55.4137 52.7887 57.75 49.875 57.75H13.125C11.7326 57.75 10.3973 57.1969 9.41269 56.2123C8.42812 55.2277 7.875 53.8924 7.875 52.5V49.875H5.25C3.80625 49.875 2.625 48.6937 2.625 47.25V39.375C2.625 37.9313 3.80625 36.75 5.25 36.75H7.875C7.875 26.5912 16.0913 18.375 26.25 18.375H28.875V15.0413C27.3 14.1488 26.25 12.4425 26.25 10.5C26.25 7.6125 28.6125 5.25 31.5 5.25C34.3875 5.25 36.75 7.6125 36.75 10.5C36.75 12.4425 35.7 14.1488 34.125 15.0413V18.375H36.75C46.9087 18.375 55.125 26.5912 55.125 36.75H57.75C59.1937 36.75 60.375 37.9313 60.375 39.375ZM55.125 42H49.875V36.75C49.875 29.505 43.995 23.625 36.75 23.625H26.25C19.005 23.625 13.125 29.505 13.125 36.75V42H7.875V44.625H13.125V52.5H49.875V44.625H55.125V42ZM40.6875 35.4375C37.8 35.4375 35.4375 37.8 35.4375 40.6875C35.4375 41.6587 35.7262 42.525 36.1725 43.3125C37.065 41.7637 38.745 40.6875 40.6875 40.6875C42.63 40.6875 44.31 41.7637 45.2025 43.3125C45.675 42.525 45.9375 41.6587 45.9375 40.6875C45.9375 39.2951 45.3844 37.9598 44.3998 36.9752C43.4152 35.9906 42.0799 35.4375 40.6875 35.4375Z" fill="white"/>
</svg>
